HIERARCHY
ROOT Hips
{
	OFFSET 0.000000 0.000000 0.000000
	CHANNELS 6 Xposition Yposition Zposition Zrotation Yrotation Xrotation 
	JOINT LHipJoint
	{
		OFFSET 0.000000 0.000000 0.000000
		CHANNELS 3 Zrotation Yrotation Xrotation
		JOINT LeftUpLeg
		{
			OFFSET 8.178360 -10.767780 5.035740
			CHANNELS 3 Zrotation Yrotation Xrotation
			JOINT LeftLeg
			{
				OFFSET 14.688660 -40.356780 0.000000
				CHANNELS 3 Zrotation Yrotation Xrotation
				JOINT LeftFoot
				{
					OFFSET 15.373200 -42.237540 0.000000
					CHANNELS 3 Zrotation Yrotation Xrotation
					JOINT LeftToeBase
					{
						OFFSET 0.945840 -2.598660 13.935300
						CHANNELS 3 Zrotation Yrotation Xrotation
						End Site
						{
							OFFSET 0.000000 0.000000 0.000000
						}
					}
				}
			}
		}
	}
	JOINT RHipJoint
	{
		OFFSET 0.000000 0.000000 0.000000
		CHANNELS 3 Zrotation Yrotation Xrotation
		JOINT RightUpLeg
		{
			OFFSET -7.833120 -10.767780 5.035740
			CHANNELS 3 Zrotation Yrotation Xrotation
			JOINT RightLeg
			{
				OFFSET -15.255180 -41.913300 0.000000
				CHANNELS 3 Zrotation Yrotation Xrotation
				JOINT RightFoot
				{
					OFFSET -15.409560 -42.337380 0.000000
					CHANNELS 3 Zrotation Yrotation Xrotation
					JOINT RightToeBase
					{
						OFFSET -0.988380 -2.715540 14.178900
						CHANNELS 3 Zrotation Yrotation Xrotation
						End Site
						{
							OFFSET 0.000000 0.000000 0.000000
						}
					}
				}
			}
		}
	}
	JOINT LowerBack
	{
		OFFSET 0.000000 0.000000 0.000000
		CHANNELS 3 Zrotation Yrotation Xrotation
		JOINT Spine
		{
			OFFSET 0.169620 12.213540 -1.160280
			CHANNELS 3 Zrotation Yrotation Xrotation
			JOINT Spine1
			{
				OFFSET 0.340320 12.293100 -0.256500
				CHANNELS 3 Zrotation Yrotation Xrotation
				JOINT Neck
				{
					OFFSET 0.000000 0.000000 0.000000
					CHANNELS 3 Zrotation Yrotation Xrotation
					JOINT Neck1
					{
						OFFSET -0.325020 10.477440 1.032120
						CHANNELS 3 Zrotation Yrotation Xrotation
						JOINT Head
						{
							OFFSET 0.624420 10.568160 -0.743820
							CHANNELS 3 Zrotation Yrotation Xrotation
							End Site
							{
								OFFSET 0.000000 0.000000 0.000000
							}
						}
					}
				}
				JOINT LeftShoulder
				{
					OFFSET 0.000000 0.000000 0.000000
					CHANNELS 3 Zrotation Yrotation Xrotation
					JOINT LeftArm
					{
						OFFSET 20.174460 7.205340 -1.867260
						CHANNELS 3 Zrotation Yrotation Xrotation
						JOINT LeftForeArm
						{
							OFFSET 29.898000 -0.000000 -0.000000
							CHANNELS 3 Zrotation Yrotation Xrotation
							JOINT LeftHand
							{
								OFFSET 20.901360 -0.000000 -0.000000
								CHANNELS 3 Zrotation Yrotation Xrotation
								JOINT LeftFingerBase
								{
									OFFSET 0.000000 0.000000 0.000000
									CHANNELS 3 Zrotation Yrotation Xrotation
									JOINT LeftHandIndex1
									{
										OFFSET 4.291560 -0.000000 -0.000000
										CHANNELS 3 Zrotation Yrotation Xrotation
										End Site
										{
											OFFSET 0.000000 0.000000 0.000000
										}
									}
								}
								JOINT LThumb
								{
									OFFSET 0.000000 0.000000 0.000000
									CHANNELS 3 Zrotation Yrotation Xrotation
									End Site
									{
										OFFSET 0.000000 0.000000 0.000000
									}
								}
							}
						}
					}
				}
				JOINT RightShoulder
				{
					OFFSET 0.000000 0.000000 0.000000
					CHANNELS 3 Zrotation Yrotation Xrotation
					JOINT RightArm
					{
						OFFSET -18.819600 8.244300 -2.427900
						CHANNELS 3 Zrotation Yrotation Xrotation
						JOINT RightForeArm
						{
							OFFSET -31.451400 -0.000000 -0.000000
							CHANNELS 3 Zrotation Yrotation Xrotation
							JOINT RightHand
							{
								OFFSET -20.665020 -0.000000 -0.000000
								CHANNELS 3 Zrotation Yrotation Xrotation
								JOINT RightFingerBase
								{
									OFFSET 0.000000 0.000000 0.000000
									CHANNELS 3 Zrotation Yrotation Xrotation
									JOINT RightHandIndex1
									{
										OFFSET -3.735180 -0.000000 -0.000000
										CHANNELS 3 Zrotation Yrotation Xrotation
										End Site
										{
											OFFSET 0.000000 0.000000 0.000000
										}
									}
								}
								JOINT RThumb
								{
									OFFSET 0.000000 0.000000 0.000000
									CHANNELS 3 Zrotation Yrotation Xrotation
									End Site
									{
										OFFSET 0.000000 0.000000 0.000000
									}
								}
							}
						}
					}
				}
			}
		}
	}
}
MOTION
Frames:	12
Frame Time:	0.0333333
-1.787664 101.910018 -45.158862 -1.434702 -7.106868 22.072420 2.486102 -0.318483 -1.020209 -6.191946 -6.371119 -66.238512 19.667985 22.441329 88.568930 1.975183 -8.510763 16.102284 0.571300 -4.840500 -13.454300 0.039453 -1.824532 2.540688 18.560288 7.709517 -6.452232 -2.467423 -10.717101 33.919150 0.487381 -3.896151 4.653947 -3.483500 11.439300 -33.776300 2.724237 3.847344 17.226814 0.614700 5.331492 -2.335673 -0.830651 2.932610 -6.331988 -6.595352 -4.030886 -15.327713 3.512770 -3.851108 -3.338399 2.966100 -1.615200 3.764400 -2.135503 2.704586 -3.201497 -62.211994 36.846592 51.034104 89.099745 -65.565458 -68.983521 0.461081 -2.401901 -26.878833 15.220585 13.719726 4.519800 -7.125000 0.000000 0.000000 -11.168500 46.369000 -0.382000 -0.364200 -1.129270 -1.075298 85.304640 16.404809 47.391376 -131.492999 52.495375 -98.378648 2.025985 -1.272738 -19.392804 -17.134086 30.337716 -10.123300 7.125000 0.000000 0.000000 7.410900 3.196400 7.877300 
-2.051352 102.818712 -31.474740 -0.459984 -3.495414 21.312010 2.221715 -0.397354 -1.658280 -5.989084 -10.193229 -66.950327 14.653386 22.220953 75.100949 2.832831 -13.514738 15.334208 0.399600 -4.058400 -11.241100 0.970417 -2.949354 4.298934 16.503437 5.282143 5.332205 0.310094 -5.840198 18.405368 -0.795583 -7.951958 31.243750 -1.180700 6.896300 -19.408600 3.210640 4.047811 15.942237 0.401699 5.506637 -2.457703 -1.964145 3.161426 -6.243421 -6.346626 -5.392979 -14.944865 3.978836 -5.689154 -2.854020 2.949500 -2.510200 4.090600 -1.747628 3.098750 -3.110414 -59.005627 43.016392 51.432025 105.226823 -66.268918 -79.084298 0.195906 -2.109018 -26.238744 13.163844 13.025676 3.674900 -7.125000 0.000000 0.000000 -12.667000 45.032600 -0.010400 -0.824216 -1.159448 -1.045459 83.191254 14.097615 48.722941 -140.187745 47.297159 -104.246683 2.085611 -1.338919 -20.823544 -18.573725 29.129205 -10.623100 7.125000 0.000000 0.000000 6.461700 2.386100 6.767600 
-2.792472 103.217094 -17.247432 -0.197906 -0.591887 19.915799 1.936398 -0.342163 -2.254604 -8.308974 -9.996336 -63.244616 9.669257 20.680811 61.855815 3.579150 -17.382590 16.637224 0.132300 -2.344500 -6.458600 1.234007 -4.437783 5.819863 17.212753 9.825087 20.403875 2.404687 0.016378 0.697310 -7.058138 -9.836846 55.903930 -0.046100 1.385500 -3.810200 1.922601 4.270472 14.475164 0.449876 5.476562 -2.511289 -0.626389 3.337663 -6.357538 -7.084379 -6.557587 -12.875759 5.558851 -7.118680 -2.650178 3.625900 -3.131000 3.940800 -1.612515 3.427981 -3.106713 -60.433835 45.660861 50.528112 111.574014 -65.529263 -82.848153 -0.124037 -1.834972 -25.600393 13.285194 9.014937 2.668600 -7.125000 0.000000 0.000000 -11.338700 40.660500 1.231300 -0.908104 -0.972458 -0.906381 82.501955 7.097510 49.079605 -140.346197 47.384166 -104.226307 2.001635 -1.534936 -17.334604 -18.732433 30.305082 -11.074600 7.125000 0.000000 0.000000 6.549100 3.667700 6.999300 
-3.435576 102.705522 -4.148868 -0.754796 5.394945 18.256810 1.381283 -1.027753 -2.234976 -10.841561 -9.373802 -58.667571 6.767315 18.867019 53.939491 4.090333 -21.583315 17.672871 0.367500 -3.894100 -10.778800 1.150817 -2.888348 4.741979 25.124576 7.066893 16.600459 -0.920594 -7.341507 21.214366 -2.677616 -14.137585 44.305832 -1.066300 -6.564900 18.432500 3.672910 2.820526 14.959278 0.568875 3.997402 -2.518705 -0.838852 2.504292 -6.185158 -7.281667 -7.307110 -13.876745 6.590755 -7.990765 -1.711128 3.981000 -3.477800 4.819400 -1.771607 3.282506 -3.237470 -64.717321 42.341783 48.675620 116.791571 -63.805092 -86.244392 -0.359465 -1.728029 -23.644099 15.564766 8.880297 3.055600 -7.125000 0.000000 0.000000 -9.201600 40.566200 1.015700 -0.697623 -0.895691 -0.942885 83.402694 0.273578 48.180088 -132.364176 52.254832 -98.807756 1.894051 -1.302541 -15.517877 -18.224058 28.514441 -10.174300 7.125000 0.000000 0.000000 6.554600 1.458000 6.763300 
-4.143810 102.733344 8.874444 0.075565 7.020813 18.837851 1.036646 -1.242989 -1.854789 -15.019402 -6.717582 -53.619412 6.230349 17.891304 51.627705 4.326827 -17.715827 11.718416 0.007700 0.567500 1.559400 0.370430 -1.816701 3.353836 26.823101 3.314470 6.224625 -7.530838 -13.861990 43.893212 2.225618 -26.373592 33.315407 -0.284900 -3.432900 9.486300 1.811346 2.565075 13.679009 0.323453 3.344748 -2.441555 -0.463992 2.135241 -5.191726 -7.548802 -7.852557 -14.260517 8.144948 -8.541080 -2.778644 4.683800 -3.549800 4.488800 -2.148099 3.310095 -3.043620 -69.832036 33.955576 47.209148 118.950402 -62.422484 -87.944371 -0.422404 -1.478116 -20.991532 15.261670 6.793679 2.322500 -7.125000 0.000000 0.000000 -9.142000 38.187600 1.549000 -0.434883 -0.934043 -0.947361 85.578709 -5.939281 45.684109 -116.393011 58.498674 -87.546612 1.994043 -0.984221 -12.103081 -18.409310 27.345734 -9.924000 7.125000 0.000000 0.000000 6.103800 -0.086100 6.129500 
-4.574442 102.238842 21.499374 0.100041 6.092984 19.882729 0.884613 -1.048302 -1.242321 -16.263916 -5.358082 -47.724309 7.551442 18.027517 54.280685 4.321691 -13.630655 1.920205 0.170600 2.660800 7.335900 -0.633087 -1.177908 2.202336 26.700044 5.310355 -6.306099 -14.308881 -17.838747 67.450882 2.087854 -22.677846 29.214664 -0.312200 -3.592200 9.932200 0.006727 2.705175 12.691781 0.055966 3.291477 -2.417157 -0.166268 2.044550 -4.554356 -7.431168 -7.922779 -15.437033 9.219469 -8.493525 -3.684383 5.097100 -3.362400 4.343000 -2.507021 3.197498 -2.599569 -75.752519 22.871993 47.236179 120.659439 -61.129255 -89.415999 -0.387215 -1.318108 -21.391760 14.428059 5.177025 1.709000 -7.125000 0.000000 0.000000 -9.633300 36.333800 2.076600 0.019633 -0.898220 -1.380190 87.001848 -10.689188 43.695520 -89.362770 60.337659 -67.806408 2.774498 -0.602784 -10.901481 -20.462381 29.360958 -12.011800 7.125000 0.000000 0.000000 4.615900 2.058900 4.794200 
-4.892514 101.420580 33.629802 5.028702 6.846329 20.547993 -0.023613 -0.732976 -0.461607 -20.675774 -8.575441 -36.927076 6.676990 16.706193 51.009131 3.708342 -8.024154 -6.464857 0.010400 -0.659700 -1.813000 -1.129739 -0.869788 1.394162 18.803936 3.932613 -21.647872 -20.370973 -19.572333 87.643404 1.651530 -15.951805 23.429749 -0.737000 -5.484500 15.295800 -5.693925 1.522613 13.132094 -0.291132 0.925513 -2.288840 1.649802 0.811883 -4.091532 -7.969968 -8.157858 -16.981437 10.780703 -8.511637 -3.934595 5.718800 -3.188700 4.683000 -2.730087 3.123817 -2.090198 -81.945288 9.514216 48.100448 126.296227 -58.573826 -93.375387 -0.591805 -1.507941 -25.220887 19.356551 8.108716 3.435000 -7.125000 0.000000 0.000000 -5.595500 39.752300 0.726400 -0.014378 -0.839812 -1.812394 87.189311 -17.806863 41.672411 -78.734459 58.644056 -58.982753 2.904393 -0.788283 -4.769603 -22.715921 30.085447 -13.626100 7.125000 0.000000 0.000000 3.282700 3.148700 3.463600 
-4.544088 101.110728 45.930330 4.029183 7.128163 20.907055 -0.845944 -0.219157 0.403147 -19.272017 -8.597589 -27.187779 5.345547 15.134850 46.384148 3.133588 -4.518696 -10.363350 0.374600 -3.931000 -10.882600 -1.614107 -0.650940 0.988275 15.829083 6.384042 -36.182859 -23.440489 -20.195411 98.289317 1.173785 -9.405854 16.319538 -0.140700 -2.417200 6.660200 -4.237021 0.459224 14.165223 0.070270 -0.219163 -2.613852 2.231080 0.166141 -5.276937 -7.745207 -7.414551 -18.234075 10.139623 -7.459469 -4.116736 5.323800 -2.755300 4.737300 -2.253595 2.884209 -1.889325 -88.812471 -1.880677 50.635968 136.856594 -53.122416 -100.697735 -0.734697 -1.310457 -29.626932 20.545794 6.743402 2.996800 -7.125000 0.000000 0.000000 -4.270000 38.028600 0.734500 -0.428932 -0.943358 -1.583227 84.299227 -29.836588 38.139608 -100.596677 61.445852 -76.081823 2.505543 -1.263771 -3.867623 -22.445915 32.148962 -14.168800 7.125000 0.000000 0.000000 4.096500 5.612600 4.488500 
-4.016706 101.750664 59.071260 4.532229 7.138303 20.491034 -1.780280 0.588031 1.718931 -19.219117 -8.133056 -15.759419 3.048600 12.534291 38.519777 2.567038 -3.586274 -5.343412 1.645800 -8.085700 -22.974600 -1.802149 -0.624796 0.543978 10.897335 7.410697 -48.628654 -23.405717 -21.056794 98.863546 0.090106 -2.553864 10.122135 -0.136900 -2.385000 6.570800 -3.612002 -1.813367 14.597790 0.354544 -3.035952 -2.782713 2.859009 -1.290676 -5.590878 -6.910715 -5.451561 -18.750981 10.058830 -5.136174 -3.528628 5.327100 -1.637400 4.786600 -1.777948 2.698835 -1.696429 -92.795561 -8.609583 51.242179 148.852908 -44.435791 -108.484304 -0.942411 -1.037929 -31.111619 21.242361 5.720175 2.528900 -7.125000 0.000000 0.000000 -3.496600 36.557300 0.727100 -0.948555 -0.993264 -1.599924 77.980646 -39.286518 42.729294 -122.558437 57.390485 -91.595125 1.814603 -1.630811 -5.363507 -21.256727 32.805948 -13.388300 7.125000 0.000000 0.000000 5.368600 6.409600 5.959300 
-3.806766 103.142478 73.415556 3.928046 4.239531 20.624097 -2.476276 1.445462 3.375715 -18.261301 -6.017172 -6.215752 0.689431 9.402133 29.539835 2.129893 -3.285976 9.350521 2.710200 -10.210500 -29.661000 -1.831155 -0.616203 0.021777 8.558352 11.133065 -55.970570 -19.858136 -21.863670 88.514308 0.039355 -1.888683 5.246149 -0.041000 1.306300 -3.591900 -3.437103 -2.895286 13.548011 0.686641 -4.342918 -3.041695 4.113521 -2.016144 -5.675280 -6.839542 -3.754863 -20.091848 9.450780 -2.950113 -2.180901 5.264900 -0.624500 5.436100 -1.417565 2.466394 -1.674599 -90.248640 -11.039538 53.090392 156.681018 -36.440153 -113.032945 -1.252590 -0.882003 -32.205866 24.477264 4.646669 2.277100 -7.125000 0.000000 0.000000 -0.544000 35.178200 0.131200 -1.188061 -1.069635 -1.770054 71.380822 -46.677277 47.206272 -135.352186 51.578383 -100.613294 1.578028 -1.777838 -6.897746 -19.655563 32.302200 -12.133700 7.125000 0.000000 0.000000 6.366600 5.737900 7.012700 
-3.754914 104.863110 88.798176 2.534610 -0.142389 20.869529 -3.895443 2.738989 5.338408 -16.189539 -4.812178 2.257849 -0.911075 6.127555 17.901849 3.275020 9.146881 44.264526 0.581400 -4.882500 -13.573600 -1.468850 -0.618226 -0.712808 8.477250 14.544602 -59.345540 -13.635011 -21.310817 70.875425 0.518635 -4.006657 3.492805 -0.352100 3.812300 -10.549100 -2.860232 -2.853745 12.017831 0.908351 -4.099473 -3.205238 4.816381 -2.024201 -5.739979 -7.021525 -2.691076 -20.608918 8.539133 -1.523088 -1.781708 5.057300 -0.030800 5.552000 -1.304691 2.228891 -1.763575 -84.173740 -7.283530 56.636664 159.326448 -33.230465 -114.428139 -1.596219 -0.126932 -14.313745 28.621945 0.979996 0.382700 -7.125000 0.000000 0.000000 2.886000 30.733500 -1.006900 -1.179508 -1.247764 -1.885434 68.695360 -51.282882 47.597060 -139.984430 48.739186 -103.767400 1.478068 -1.877350 -7.168433 -18.366711 32.468443 -11.357300 7.125000 0.000000 0.000000 7.182900 5.735700 7.924600 
-3.637926 106.156902 104.318022 1.965257 -3.089138 20.962375 -4.305848 3.897330 6.986497 -17.024017 -9.178085 12.483260 -2.514128 2.738692 8.774733 8.470693 2.734880 60.176887 0.242800 3.171200 8.755800 -1.142559 -0.449720 -1.650534 9.650009 14.776669 -58.243411 -6.360246 -18.013055 49.891172 -0.562518 -1.162567 7.521017 -0.922100 6.117900 -17.127000 -1.876988 -2.869080 10.625859 1.035727 -3.882388 -3.265157 4.660055 -2.066711 -5.736256 -7.470664 -1.845436 -19.427478 7.516924 -0.402272 -1.784212 4.873800 0.391700 5.096400 -1.407557 2.081786 -1.910732 -78.324339 -0.488707 59.678821 157.841037 -35.225904 -113.694326 -1.736510 0.378878 2.621501 35.004105 1.607823 0.905600 -7.125000 0.000000 0.000000 8.134700 31.429200 -2.723600 -1.121185 -1.486781 -1.890199 69.495735 -53.371236 44.472018 -140.364529 48.657444 -103.982998 1.401560 -1.955099 -3.991738 -19.433956 32.163568 -11.938700 7.125000 0.000000 0.000000 6.533600 5.653100 7.190300 
